{"title":"NFL Sound FX Week 1 2013 (1280x720) [Phr0stY].mp4","uid":8912627,"size":987347256,"categoryP":"video","categoryS":"hd___tv_shows","magnet":"?xt=urn:btih:30eb8ff86374bbd98feb603ac01bb6bda9c8ef91&amp;dn=NFL+Sound+FX+Week+1+2013+%281280x720%29+%5BPhr0stY%5D.mp4&amp;tr=udp%3A%2F%2Ftracker.openbittorrent.com%3A80&amp;tr=udp%3A%2F%2Fopen.demonii.com%3A1337&amp;tr=udp%3A%2F%2Ftracker.coppersurfer.tk%3A6969&amp;tr=udp%3A%2F%2Fexodus.desync.com%3A6969","seeders":1,"leechers":0,"uploader":"frostyon420","files":-1,"time":1379061724,"description":"Please Seed!!!!!!!\n\n &lt;a href=&quot;\nhttps://forum.suprbay.org/showthread.php?tid=154520&quot; rel=&quot;nofollow&quot; target=&quot;_NEW&quot;&gt;\nhttps://forum.suprbay.org/showthread.php?tid=154520&lt;/a&gt;\n\n\nComplete name                            : D:TV showsNFLNFL Sound FXNFL Sound FX Week 1 2013 (1280x720) [Phr0stY].mp4\nFormat                                   : MPEG-4\nFormat profile                           : Base Media\nCodec ID                                 : isom\nFile size                                : 942 MiB\nDuration                                 : 29mn 43s\nOverall bit rate mode                    : Variable\nOverall bit rate                         : 4 428 Kbps\nEncoded date                             : UTC 2013-09-11 05:13:13\nTagged date                              : UTC 2013-09-11 05:13:13\n\nVideo\nID                                       : 1\nFormat                                   : AVC\nFormat/Info                              : Advanced Video Codec\nFormat profile                           : &lt;a class=&quot;__cf_email__&quot; href=&quot;/cdn-cgi/l/email-protection&quot; data-cfemail=&quot;581539313618146c7668&quot;&gt;[email&amp;#160;protected]&lt;/a&gt;&lt;script cf-hash='f9e31' type=&quot;text/javascript&quot;&gt;\n/* &lt;![CDATA[ */!function(){try{var t=&quot;currentScript&quot;in document?document.currentScript:function(){for(var t=document.getElementsByTagName(&quot;script&quot;),e=t.length;e--;)if(t[e].getAttribute(&quot;cf-hash&quot;))return t[e]}();if(t&amp;&amp;t.previousSibling){var e,r,n,i,c=t.previousSibling,a=c.getAttribute(&quot;data-cfemail&quot;);if(a){for(e=&quot;&quot;,r=parseInt(a.substr(0,2),16),n=2;a.length-n;n+=2)i=parseInt(a.substr(n,2),16)^r,e+=String.fromCharCode(i);e=document.createTextNode(e),c.parentNode.replaceChild(e,c)}}}catch(u){}}();/* ]]&gt; */&lt;/script&gt;\nFormat settings, CABAC                   : Yes\nFormat settings, ReFrames                : 3 frames\nCodec ID                                 : avc1\nCodec ID/Info                            : Advanced Video Coding\nDuration                                 : 29mn 43s\nBit rate                                 : 4 294 Kbps\nWidth                                    : 1 280 pixels\nHeight                                   : 720 pixels\nDisplay aspect ratio                     : 16:9\nFrame rate mode                          : Variable\nFrame rate                               : 29.970 fps\nMinimum frame rate                       : 29.412 fps\nMaximum frame rate                       : 30.303 fps\nColor space                              : YUV\nChroma subsampling                       : 4:2:0\nBit depth                                : 8 bits\nScan type                                : Progressive\nBits/(Pixel*Frame)                       : 0.155\nStream size                              : 913 MiB (97%)\nTitle                                    : NeuLion MP4 - Video\nEncoded date                             : UTC 2013-09-11 05:13:14\nTagged date                              : UTC 2013-09-11 05:29:53\n\nAudio\nID                                       : 2\nFormat                                   : AAC\nFormat/Info                              : Advanced Audio Codec\nFormat profile                           : LC\nCodec ID                                 : 40\nDuration                                 : 29mn 43s\nBit rate mode                            : Variable\nBit rate                                 : 126 Kbps\nChannel count                            : 2 channels\nChannel positions                        : Front: L R\nSampling rate                            : 44.1 KHz\nCompression mode                         : Lossy\nStream size                              : 26.7 MiB (3%)\nTitle                                    : NeuLion MP4 - Audio\nEncoded date                             : UTC 2013-09-11 05:13:14\nTagged date                              : UTC 2013-09-11 05:29:53\n\nText\nID                                       : 1-CC1\nFormat                                   : EIA-608\nMuxing mode                              : SCTE 128 / DTVCC Transport\nMuxing mode, more info                   : Muxed in Video #1\nDuration                                 : 29mn 43s\nBit rate mode                            : Constant\nStream size                              : 0.00 Byte (0%)\nEncoded stream size                      : 0.00 Byte (0%)\n\n","torrent":{"xt":"urn:btih:30eb8ff86374bbd98feb603ac01bb6bda9c8ef91","amp;dn":"NFL+Sound+FX+Week+1+2013+%281280x720%29+%5BPhr0stY%5D.mp4","amp;tr":["udp%3A%2F%2Ftracker.openbittorrent.com%3A80","udp%3A%2F%2Fopen.demonii.com%3A1337","udp%3A%2F%2Ftracker.coppersurfer.tk%3A6969","udp%3A%2F%2Fexodus.desync.com%3A6969"],"infoHash":"30eb8ff86374bbd98feb603ac01bb6bda9c8ef91","infoHashBuffer":{"type":"Buffer","data":[48,235,143,248,99,116,187,217,143,235,96,58,192,27,182,189,169,200,239,145]},"announce":[],"urlList":[]}}